<?xml version="1.0" encoding="utf-8"?>
<!-- Generator: Adobe Illustrator 24.0.0, SVG Export Plug-In . SVG Version: 6.00 Build 0)  -->
<svg version="1.1" id="Layer_1" xmlns="http://www.w3.org/2000/svg" xmlns:xlink="http://www.w3.org/1999/xlink" x="0px" y="0px"
	 viewBox="0 0 612 792" style="enable-background:new 0 0 612 792;" xml:space="preserve">
<style type="text/css">
	.st0{fill:#5B4A42;}
	.st1{fill:#504C49;}
	.st2{fill:#DF5A26;}
	.st3{fill:#E15D29;}
	.st4{fill:#E45A27;}
	.st5{fill:#DD6934;}
	.st6{fill:#4A4744;}
	.st7{fill:#A1684E;}
	.st8{fill:#312926;}
	.st9{fill:#9D4E2D;}
	.st10{fill:#874B2F;}
	.st11{fill:#7F7B77;}
	.st12{fill:#EE8758;}
</style>
<g>
	<path class="st0" d="M396.79,532.51c0.37,4.27,0.45,8.54,0,12.81c-1.12,1.04-1.12,2.1-0.04,3.18c0.02,0.6,0.03,1.21,0.05,1.81
		c-0.29,0.42-0.57,0.83-0.86,1.24c-8.31,0.83-8.31,0.83-8.33-7.37c-0.02-8.15,0-16.31-0.05-24.46c-0.01-1.1,0.53-2.6-0.69-3.17
		c-1.65-0.78-2.24,0.99-3.03,1.91c-4.54,5.31-9.14,10.58-13.46,16.07c-1.87,2.37-2.85,2.37-4.75,0.03
		c-5.08-6.28-10.42-12.35-15.72-18.59c-2,1.86-1.24,3.8-1.25,5.49c-0.1,8.98-0.2,17.97-0.01,26.96c0.1,4.64-3.12,3.3-5.47,3.46
		c-2.26,0.15-4.53,0.66-4.48-3.27c0.2-15.14,0.06-30.28-0.02-45.43c-0.01-2.09,0.64-2.89,2.83-3c4.79-0.25,8.89-0.06,12.05,4.73
		c3.47,5.24,8.12,9.68,12,14.66c1.93,2.47,3.04,2.17,4.84-0.07c4.59-5.7,9.36-11.25,14.09-16.84c1.65-1.95,9.34-3.39,11.49-2.3
		c1.18,0.6,0.98,1.57,0.97,2.55c-0.06,3.82-0.11,7.64-0.16,11.46c-1.31,2.72-1.34,5.44,0.01,8.16c0,2.61,0,5.22,0,7.83
		C395.85,531.06,395.85,531.78,396.79,532.51z"/>
	<path class="st1" d="M241.22,362.56c-0.11-16.97-0.23-33.94-0.31-50.91c-0.04-7.82-0.06-15.65,0.03-23.47
		c0.08-7.18,4.6-12.03,11.11-12.16c6.53-0.13,11.48,4.54,11.63,11.71c0.24,11.32,0.13,22.64,0.07,33.96
		c-0.07,13.64-0.24,27.27-0.36,40.91c-2.95-0.7-3.64-4.74-7.05-4.76c-0.13-0.13-0.26-0.26-0.4-0.39c1.17-3.87-0.06-6.51-3.99-7.76
		c0.03-20.43,0.09-40.85,0.06-61.28c0-2.39,0.39-5.67-3.13-5.72c-3.81-0.06-2.93,3.35-2.94,5.65c-0.05,19.43-0.04,38.86,0.04,58.29
		c0.01,1.67-0.91,3.73,1.25,4.92c-1.12,3.05-0.52,5.64,2.06,7.7c-0.44,0.37-0.89,0.74-1.33,1.12
		C244.64,357.81,243.82,362.91,241.22,362.56z"/>
	<path class="st1" d="M263.96,367.66c-0.06,20.76-0.12,41.52-0.21,62.29c-0.01,1.98-0.03,4.01-0.45,5.94
		c-1.24,5.71-6.21,9.18-12.17,8.7c-5.66-0.46-10.12-4.93-10.15-10.96c-0.08-21.59,0.06-43.18,0.12-64.78
		c0.61-2.13,2.26-3.29,4.04-4.33c1.35,1.6,0.76,3.51,0.77,5.28c0.04,20.46-0.02,40.92,0.06,61.37c0.01,2.4-1.2,6.23,2.87,6.17
		c3.62-0.06,2.77-3.79,3.19-6.25c0.06-0.32-0.01-0.66-0.01-1c-0.02-20.29-0.08-40.58-0.02-60.88c0.01-3.36-0.07-6.6-1.93-9.53
		c2.35,0.28,4.26-0.61,5.87-2.26c0.13,0.13,0.27,0.26,0.4,0.39C256.28,363.12,261.5,364.33,263.96,367.66z"/>
	<path class="st0" d="M510.22,551.86c-4.66,0-9.32,0.2-13.97-0.05c-6.9-0.37-10.58-4.3-10.69-11.21c-0.1-6.32-0.1-12.64,0.01-18.96
		c0.14-7.58,3.96-11.36,11.4-11.4c6.65-0.04,13.31-0.07,19.96-0.01c6.98,0.06,10.7,3.78,10.85,10.76c0.08,3.66-0.19,7.33,0.09,10.97
		c0.25,3.22-1.03,3.93-3.99,3.87c-8.31-0.17-16.63-0.03-24.95-0.07c-2.17-0.01-3.88,0.05-3.92,3.04c-0.04,2.92,1.15,3.68,3.87,3.64
		c8.31-0.13,16.64,0.15,24.94-0.16c4.17-0.16,3.96,2.08,4.01,4.96c0.05,3.04-0.17,5.06-4.16,4.73c-4.46-0.37-8.97-0.08-13.46-0.08
		C510.22,551.89,510.22,551.87,510.22,551.86z M506.42,526.36c2.99,0,5.99-0.16,8.96,0.05c2.81,0.2,3.25-1.14,3.28-3.55
		c0.03-2.48-0.57-3.65-3.31-3.59c-5.81,0.14-11.62,0.06-17.43,0.01c-2.54-0.03-3.88,0.61-3.92,3.64c-0.04,3.18,1.49,3.53,3.95,3.46
		C500.78,526.28,503.6,526.35,506.42,526.36z"/>
	<path class="st0" d="M422.67,510.22c4.49,0,8.98-0.06,13.47,0.01c6.72,0.11,10.66,3.82,10.74,10.36
		c0.11,9.31-0.07,18.63,0.06,27.94c0.04,2.65-0.85,3.46-3.43,3.42c-9.31-0.13-18.63,0.1-27.94-0.15
		c-6.99-0.19-10.49-3.99-10.87-10.99c-0.79-14.58-0.79-14.58,13.61-14.59c5.15,0,10.31-0.13,15.46,0.05
		c2.88,0.1,3.72-1.06,3.78-3.78c0.06-2.98-1.57-3.1-3.81-3.09c-8.48,0.06-16.97-0.15-25.45,0.08c-3.34,0.09-3.99-1.28-3.67-4.12
		c0.27-2.43-1.06-5.53,3.59-5.2c4.8,0.34,9.64,0.07,14.47,0.07C422.67,510.23,422.67,510.22,422.67,510.22z M425.63,542.5
		c0,0.02,0,0.04,0,0.06c2.81,0,5.63-0.16,8.42,0.04c2.86,0.21,3.64-0.9,3.66-3.68c0.01-2.63-0.75-3.5-3.36-3.42
		c-5.61,0.15-11.23,0.14-16.85,0.03c-2.45-0.05-3.62,0.58-3.58,3.31c0.04,2.75,0.96,3.89,3.79,3.69
		C420.34,542.35,422.99,542.5,425.63,542.5z"/>
	<path class="st2" d="M114.2,538.62c-1.3-1.35-2.61-2.69-3.91-4.04c-5.72-1.92-11.45-1.71-17.19-0.04
		c-1.89,3.61-0.58,7.47-0.82,11.21c-0.17,2.67,0.01,4.94-3.8,4.85c-3.55-0.08-3.44-2.23-3.43-4.69c0.02-13.3,0.12-26.6-0.07-39.9
		c-0.05-3.78,1.24-4.79,4.91-4.74c12.46,0.18,24.93,0.03,37.4,0.01c4.37,0.33,6.02,3.73,7.84,6.94c-1.48,5.85-1.58,11.7,0.07,17.53
		c0.39,1.18-0.61,1.66-1.18,2.37c-0.88,0.56-1.26,1.31-0.9,2.35c0,0,0.02-0.03,0.02-0.03c-0.74-0.04-1.07,0.32-1.02,1.05
		c0,0,0.03-0.02,0.03-0.02c-1.94-0.52-3.49,0.82-5.25,1.17c-1.59,0.32-3.15,1.25-3.01,3.26c0.14,1.93,0.81,3.61,3.26,3.51
		c0,0-0.02-0.02-0.02-0.02c-0.18,2.91,1.27,4.48,4.05,4.99c0,0-0.03-0.03-0.03-0.03c-0.04,0.72,0.24,1.12,1.02,1.04
		c0,0-0.03-0.03-0.03-0.03c-0.08,0.75,0.26,1.09,1.01,1.05c0,0-0.03-0.03-0.03-0.03c0.53,3.25-0.88,4.12-4.08,4.23
		c-3.82,0.13-5.62-2.2-7.61-4.63c-1.51-1.84-2.39-4.44-5.38-4.52c0,0,0.02,0.02,0.02,0.02C116.39,539.91,116.05,538.78,114.2,538.62
		z M92.97,510.43c-1.75,4.03-0.54,8.26-0.74,12.39c-0.06,1.16,0.86,1.62,1.99,1.56l-0.05-0.07c-0.01,1.91,1.33,2.03,2.72,2.03
		c8.28,0,16.56,0.06,24.84-0.06c1.87-0.03,4.18-0.05,4.29-2.94c0-3.92,0-7.85,0-11.77c0.18-2.8-1.96-2.19-3.45-2.2
		c-8.83-0.07-17.65-0.05-26.48-0.06C94.91,509.31,93.72,509.26,92.97,510.43z"/>
	<path class="st3" d="M201.43,480.71c0,0-0.37-0.22-0.37-0.22c-1.08-2.17-2.5-4.24-3.16-6.53c-0.83-2.88-2.62-6.18,1.19-8.52
		c0.01,1.33,0.02,2.66,0.02,3.99c0.01,2.36-0.23,5.12,3.24,4.94c3.22-0.16,3.42-3.18,3.23-5.27c-1.04-11.79,0.06-23.59-0.51-35.36
		c-0.43-8.84,2.22-18.06-2.95-26.38c6.48,1.96,9.02-0.05,8.29-6.58c1.78-1.82,3.57-3.65,5.35-5.47c0.97,0.07,1.95,0.14,2.92,0.22
		c0.34,25.63,0.59,51.26-0.13,76.89c-2.35,1.19-1.47,3.61-2.07,5.47c0,0,0.01,0.06,0.01,0.06c-1.81-0.5-2.46,0.14-1.91,1.95
		c0,0-0.1,0.01-0.1,0.01C210.23,481.81,205.85,481.64,201.43,480.71z"/>
	<path class="st2" d="M183.72,516.56c0.13,0.54,0.26,1.07,0.39,1.61c-2.13,5.25-0.31,10.76-1.09,16.1
		c-9.15,0.05-18.3,0.05-27.45,0.23c-1.08,0.02-2.85-1.17-3.4,1.02c-0.01,0.47-0.02,0.94-0.03,1.4c0.05,1.44,0.1,2.89,0.15,4.33
		c0,0-0.34,0.33-0.34,0.33c-1.24,1.84,0.27,1.84,1.36,1.86c3.45,0.07,6.9-0.13,10.34,0.06c6.51,0.37,13.11-1.05,19.55,0.9
		c-0.01,1.71-0.02,3.42-0.04,5.12c-1.69,0.83-3.48,0.91-5.32,0.9c-7.79-0.04-15.57,0.02-23.36-0.02
		c-7.78-0.04-10.36-2.8-10.56-10.46c-0.16-6.24,0.89-12.53-0.71-18.72c0.05-0.6,0.1-1.2,0.15-1.79c0.91-1.3,0.9-2.71,0.5-4.17
		c0,0-0.04-0.04-0.04-0.04c2.07,0.09,2.88-1.75,4.22-2.77c1.07-0.4,2.14-0.81,3.21-1.21c3.46,0.04,6.91,0.06,10.37,0.11
		C169.38,511.49,177.52,509.89,183.72,516.56z M175.18,526.57c1.79-5.79,1.08-7.95-2.97-8.08c-5.78-0.19-11.56,0.02-17.34-0.07
		c-2.19-0.03-2.98,0.96-2.87,2.98c0.03,1.24,0.07,2.48,0.1,3.72c-1.39,1.29-0.7,2.23,0.74,2.18
		C160.29,527.04,167.8,528.46,175.18,526.57z"/>
	<path class="st2" d="M279.42,516.38c1.53,1.08,0.28,2.67,0.73,3.95c-0.05,7.04-0.1,14.07-0.15,21.11c-1.2,2.2-1.95,4.52-1.93,7.05
		c0,0,0.02-0.01,0.02-0.01c-1.08-0.2-1.86-0.01-1.82,1.33c0,0-0.05-0.18-0.05-0.18c-0.71-0.14-1.12,0.12-1.19,0.86
		c0,0,0.05-0.03,0.05-0.03c-1.34,0.03-2.68,0.06-4.02,0.09c-7.7,0.02-15.39,0.04-23.09,0.06c-4.18-0.03-6.14-3.57-9-5.68
		c0,0,0.04,0.09,0.04,0.09c0.1-8.53,0.2-17.05,0.3-25.58c1.85-3.3,3.42-7.3,7.85-7.43c10.39-0.32,20.98-2.63,30.97,2.39
		c0,0-0.11-0.04-0.11-0.04C278.49,515.03,278.96,515.7,279.42,516.38z M247.16,541.69c0.62,0.51,1.23,1.45,1.86,1.47
		c6.79,0.13,13.58,0.2,20.37,0.09c2.47-0.04,2.58-2.12,2.58-4.03c0-5.47-0.04-10.94,0.05-16.41c0.04-2.84-0.97-4.33-4.04-4.28
		c-5.8,0.1-11.6,0.04-17.4,0.03c-1.41,0-2.64,0.28-3.33,1.68C247.22,527.38,247.19,534.54,247.16,541.69z"/>
	<path class="st0" d="M454.51,520.5c0-6.82,0.2-13.65-0.07-20.47c-0.16-4.08,2.34-3.62,4.84-3.58c2.37,0.04,4.98-0.85,5.02,3.39
		c0.03,3.33-1.75,7.85,1.14,9.79c2.33,1.56,6.43,0.52,9.75,0.59c4.63,0.09,7.05,4.01,5,8.09c-0.81,1.61-2.26,0.98-3.5,1.14
		c-4.05,0.51-9.29-1.88-11.89,1.1c-2.32,2.66-0.46,7.68-0.49,11.65c-0.05,10.23,0.02,10.23,10.13,10.22
		c6.44-0.01,6.31-0.02,5.83,6.32c-0.18,2.31-0.86,3.31-3.22,3.22c-4.15-0.14-8.34,0.11-12.47-0.24c-6.5-0.54-9.88-4.19-10.04-10.76
		c-0.17-6.82-0.04-13.65-0.04-20.47C454.49,520.5,454.5,520.5,454.51,520.5z"/>
	<path class="st4" d="M218.64,385.54c0.15,0.64,0.29,1.28,0.44,1.92c-3.53,3.81-7.05,7.63-10.58,11.44
		c-0.8-0.18-1.61-0.36-2.41-0.53c-0.24-1.12-0.73-2.26-0.67-3.36c0.87-16.66,0.83-33.31-0.24-49.96c-0.33-5.07-0.99-5.54-6.07-3.29
		c-0.96-3.19,2.77-4.4,3-7.09c0,0,0.14-0.04,0.14-0.04c4.39-0.1,8.6,1.07,12.86,1.85c0,0,0,0,0,0c0.02,0.95,0.15,1.79,1.45,1.52
		c0,0,0.08,0.14,0.08,0.14c0.51,2.85-0.88,6.17,2.04,8.44c0,12.32,0.01,24.64,0.01,36.96C217.9,384.18,216.55,384.82,218.64,385.54z
		"/>
	<path class="st5" d="M285.15,384.01c0.91-2.76,0.42-5.6,0.42-8.4c0.06-25.44,0.01-50.89,0.07-76.33
		c0.02-7.46,3.68-12.27,9.64-13.05c7.53-0.99,13.21,3.86,13.35,11.81c0.22,12.13,0.2,24.26,0.2,36.38c0,21.58-0.06,43.17-0.12,64.75
		c0,1.15-0.3,2.29-0.46,3.43c-1.43-1-2.86-2.01-4.29-3.01c1.11-0.32,2.65,0.36,2.65-1.95c0.01-8.61,0.36-17.22,0.39-25.84
		c0.06-22.78-0.05-45.55,0.09-68.33c0.02-3.54-0.76-6.92-1.27-10.32c-0.53-3.5-3.85-4.89-6.91-5.52c-3.21-0.66-6.32,0.12-8.37,3.09
		c-0.61,0.88-0.03,1.54,0.7,2.05c-0.31,2.78-1.22,5.45-1.21,8.32c0.08,22.21,0.03,44.42,0.05,66.63c0.01,6.83,1.2,13.67-0.02,20.5
		C288.43,386.83,286.79,385.42,285.15,384.01z"/>
	<path class="st2" d="M296.54,520.45c0,0-0.1-0.04-0.1-0.03c-0.19-0.04-0.32-0.15-0.38-0.33c-0.64-0.82-0.88-0.4-1.03,0.33
		c-0.03,6.14,0.1,12.28-0.14,18.41c-0.15,3.88,1.06,7.88-0.81,11.64c-6.41,1.97-7.02,1.57-7.02-4.69c-0.01-11.06,0-22.12,0-33.18
		c1.87-1.47,4.09-1.13,6.22-1.14c9.29-0.05,18.57-0.06,27.86-0.09c0,0-0.14-0.07-0.14-0.07c0.42,1.02,1.26,1.19,2.23,1.11
		c2.02,1.13,3.54,2.75,4.66,4.76c-1.45,1.35-0.89,3.11-0.9,4.71c-0.04,8.31-0.07,16.61,0.01,24.92c0.02,2.38-0.49,3.68-3.29,3.67
		c-2.81,0-3.8-0.98-3.75-3.78c0.13-7.64,0.09-15.28,0.01-22.92c-0.02-1.63,0.92-3.88-1.9-4.38l-0.05,0.01
		c-7.03-1.54-14.06-1.63-21.08,0.09C296.8,519.81,296.67,520.13,296.54,520.45z"/>
	<path class="st5" d="M309.01,406.59c-0.09,19.91-0.18,39.82-0.27,59.73c-0.02,4.32,0,8.63-0.04,12.95
		c-0.07,8.29-4.51,13.47-11.47,13.4c-7.21-0.06-11.61-5-11.62-13.25c-0.03-24.78-0.03-49.55,0.02-74.33
		c0.01-5.46-0.51-10.95,0.4-16.39c1.82,1.63,3.65,3.26,5.47,4.9c-1.1,6.54,1.46,8.73,7.79,6.68c1.32,0.2,2.17,1.07,2.94,2.05
		c-2.04,0.72-4.07,1.45-6.11,2.17c-2.3,0.25-3.15-2.93-5.74-2.46c-0.11,0.7-0.29,1.33-0.29,1.95c-0.02,25.71-0.01,51.41-0.04,77.12
		c0,1.53,0.26,2.96,0.92,4.32c-1.85,1.76-0.64,2.84,0.82,3.94c2.37,1.78,5.04,3.1,7.82,1.58c3.8-2.08,7.54-4.51,7.38-9.72
		c-0.19-6.45-0.51-12.95-0.41-19.35c0.32-19.05,1.15-38.09-0.57-57.12C307.03,405.39,308.02,405.99,309.01,406.59z"/>
	<path class="st6" d="M352.98,413.48c0.75,19.62,0.32,39.25,0.21,58.88c-0.02,4.38-2.49,7.56-6.5,9.25
		c-4.3,1.81-8.41,1.52-11.95-1.89c0,0,0.23-0.23,0.23-0.23c4.76,0.18,6.16-2.24,6.09-6.79c-0.2-13.56-0.04-27.13-0.01-40.69
		c4.15-0.96,4.44-3.96,3.9-7.39C347.33,420.7,348.28,415.74,352.98,413.48z"/>
	<path class="st2" d="M232.99,512.58c0.01,0.61,0.01,1.23,0.02,1.85c-1.3,1-1.35,2-0.02,3c0,0,0-0.03,0-0.03
		c-2.53,0.89-5.12,1.22-7.82,1.18c-6.99-0.1-13.99,0.14-20.97-0.1c-4.02-0.14-5.31,1.51-5.16,5.31c0.2,4.99,0.19,9.99,0.03,14.98
		c-0.11,3.48,1.31,4.72,4.73,4.65c7.82-0.15,15.65-0.05,23.47-0.03c1.8,0,3.75-0.28,4.6,2c1.21,3.22-0.21,4.99-4.18,5.15
		c-10.12,0.39-20.28-0.82-30.38,0.73c-1.17-1.6-3.96-1.5-4.24-4.04c-1.9-7.5-0.44-15.17-1.09-22.72c-0.58-6.65,1.64-11.19,8.21-13.2
		c6.07,0.02,12.15-0.08,18.22,0.11C223.29,511.56,228.28,510.45,232.99,512.58z"/>
	<path class="st6" d="M330.97,417.46c-0.07-11.96-0.15-23.91-0.18-35.87c0-1.31,0.13-2.67,1.04-3.77c0,0.01,0.04,0.13,0.04,0.13
		c3-5.62,7.22-7.73,12.94-6.46c4.89,1.09,8.39,5.32,8.45,10.83c0.08,6.77-0.18,13.55-0.29,20.32c0.49,1.48-0.57,2.43-1.14,3.61
		c-2.7,5.66-7.02,10.44-8.97,16.5c-0.31-0.03-0.59-0.12-0.86-0.28c-1.36-1.73-1.05-3.77-1.05-5.74c0-11.78,0.04-23.57,0-35.35
		c-0.01-2.18-0.22-4.7-3.15-4.74c-2.79-0.04-3.28,2.4-3.61,4.56c-0.2,1.3-0.05,2.65-0.06,3.98c-0.07,11.45-0.13,22.9-0.2,34.34
		C332.55,419.4,331.41,418.93,330.97,417.46z"/>
	<path class="st5" d="M397.21,475.67c-2.66,5.51-6.64,7.76-12.28,6.96c-4.73-0.67-8.47-4.46-9.34-9.68
		c-0.3-1.79-0.29-3.64-0.29-5.46c-0.02-29.73,0.01-59.46-0.04-89.19c0-1.92,0.68-4.02-0.85-5.74c1.49-2.11,2.98-4.21,4.47-6.32
		c3.46,4.26,1.11,9.03,1.11,13.56c0.02,30.89-0.04,61.77-0.07,92.66c-2.15,0.24-2.2,1.71-1.71,3.24c1.53,4.77,7.85,7.37,12.1,4.8
		c2.35-1.42,4.35-3.42,6.51-5.15C396.94,475.46,397.08,475.56,397.21,475.67z"/>
	<path class="st5" d="M395.49,242.09c3.29,2.92,2.89,6.87,2.89,10.67c0.02,39.44,0.02,78.89,0.02,118.33
		c0,32.12,0.02,64.24-0.05,96.36c-0.01,2.75,0.7,5.69-1.15,8.22c-0.13-0.11-0.26-0.21-0.4-0.32c0.05-2.16,0.15-4.32,0.15-6.48
		c0.01-70.53-0.02-141.06,0.06-211.59c0.01-5.04-0.53-9.91-2.11-14.67C395.11,242.44,395.3,242.27,395.49,242.09z"/>
	<path class="st7" d="M197.32,551.26c10.09-1.55,20.26-0.34,30.38-0.73c3.97-0.15,5.39-1.92,4.18-5.15c-0.86-2.29-2.8-2-4.6-2
		c-7.82-0.02-15.65-0.12-23.47,0.03c-3.42,0.07-4.84-1.17-4.73-4.65c0.16-4.99,0.17-9.99-0.03-14.98c-0.15-3.79,1.14-5.44,5.16-5.31
		c6.98,0.24,13.98,0,20.97,0.1c2.7,0.04,5.29-0.29,7.82-1.18c0.89,3.19-1.21,3.09-3.33,3.09c-7.81-0.02-15.63,0.31-23.42-0.11
		c-4.61-0.25-5.78,1.37-5.35,5.61c0.35,3.45,0.4,7.01-0.02,10.45c-0.57,4.64,1.38,5.54,5.58,5.37c7.79-0.32,15.61-0.03,23.42-0.11
		c2.66-0.03,4.58,0.8,3.65,3.64c-0.82,2.49,2.67,7.28-3.66,7.17c-9.3-0.16-18.61-0.01-27.91-0.08
		C200.37,552.41,198.58,552.76,197.32,551.26z"/>
	<path class="st5" d="M202.11,334.66c-0.23,2.69-3.96,3.9-3,7.09c-0.01,1.24-0.01,2.48-0.02,3.73c-1.35,1.03-1.35,2.06,0,3.09
		c0.01,1.97,0.01,3.95,0.02,5.92c-0.53,0.27-1.45,0.45-1.53,0.81c-0.24,1.11,0.78,1.1,1.53,1.26c0,2.97,0,5.94,0,8.92
		c-2.94,2.71-2.94,11.37,0,14.08c0,2.97,0,5.94,0,8.91c-3.29,2.69-3.28,5.39,0,8.08c0,2.64,0.01,5.27,0.01,7.91
		c-2.92,2.67-2.92,6.41,0,9.08c0,5.97,0,11.94,0,17.91c-3.26,1.69-3.27,3.39,0,5.08c0,2.31,0,4.61,0,6.92
		c-3.82,0.61-0.7,4.67-3,6.04c-0.06-26.03-0.13-52.06-0.18-78.09c-0.02-8.79-0.03-17.59,0.05-26.38
		C196.02,340.43,197.45,336.56,202.11,334.66z"/>
	<path class="st5" d="M375.84,364.97c-1.15-3.07-0.5-6.25-0.51-9.38c-0.05-34.19-0.06-68.38-0.02-102.57c0-2.91-0.61-6.01,1.5-8.58
		l0.32,0.26c-0.06,13.77-0.16,27.54-0.18,41.31c-0.03,22.23-0.02,44.47,0.02,66.7c0,2.12-0.95,5.07,3.02,4.77
		c0.22-0.01,0.43-0.01,0.65-0.01C379.05,359.96,377.44,362.46,375.84,364.97z"/>
	<path class="st7" d="M127.28,501.29c-12.47,0.02-24.93,0.18-37.4-0.01c-3.67-0.05-4.96,0.96-4.91,4.74
		c0.19,13.3,0.1,26.6,0.07,39.9c0,2.46-0.12,4.61,3.43,4.69c3.81,0.09,3.63-2.18,3.8-4.85c0.24-3.74-1.07-7.6,0.82-11.21
		c0.49,0.1,0.97,0.21,1.46,0.31c-1.03,4.61-0.49,9.28-0.38,13.91c0.11,4.4-2.69,3.82-5.3,3.69c-2.55-0.12-5.86,1.21-5.8-3.69
		c0.18-15.14,0.12-30.29,0.06-45.44c-0.01-2.53,0.82-3.66,3.41-3.65c12.48,0.05,24.97,0.01,37.45,0.04
		C125.28,499.71,126.74,499.6,127.28,501.29z"/>
	<path class="st8" d="M375.84,364.97c1.6-2.5,3.21-5,4.81-7.51c0.47-0.65,0.93-1.31,1.4-1.96c1.68,0.85,0.74,2.27,0.75,3.48
		c-0.22,0.11-0.33,0.29-0.32,0.54c-1.21,1.04-1.85,2.42-2.33,3.9c-0.43,0.94-0.85,1.88-1.28,2.82c-1.49,2.11-2.98,4.22-4.47,6.32
		c-6.06,10.4-12.06,20.85-18.23,31.2c-1.82,3.05-3.11,6.15-3.19,9.72c-4.69,2.26-5.65,7.21-8.04,11.13
		c-0.69-0.62-1.39-1.24-2.08-1.86c1.95-6.06,6.27-10.84,8.97-16.5c0.56-1.18,1.62-2.13,1.14-3.61c0.72,0.28,1.34,0.08,1.7-0.55
		C361.73,389.72,369.64,377.83,375.84,364.97z"/>
	<path class="st6" d="M334.73,479.72c-2.66-1.62-3.87-4.22-3.89-7.09c-0.14-16.39-0.58-32.79,0.21-49.17
		c1.17-0.02,2.36-0.11,2.98,1.21c0.04,2.16,0.08,4.33,0.13,6.49c0.38,16.11-0.95,32.24,0.8,48.33L334.73,479.72z"/>
	<path class="st8" d="M208.5,398.9c3.53-3.81,7.05-7.63,10.58-11.44c7.53-6.7,13.84-14.57,20.86-21.77
		c0.73-0.75,0.87-2.08,1.28-3.14c2.6,0.35,3.41-4.75,6.73-2.19c-0.97,1.36-2.5,2.35-2.81,4.16c-1.78,1.04-3.43,2.2-4.04,4.33
		c-4.38,2.28-7.08,6.39-10.28,9.86c-4.25,4.61-9.22,8.64-12.41,14.19c-0.89,0.81-1.77,1.61-2.65,2.41
		c-1.78,1.82-3.57,3.65-5.35,5.47C209.78,400.16,209.14,399.53,208.5,398.9z"/>
	<path class="st8" d="M291.51,393.6c-1.82-1.63-3.65-3.27-5.47-4.9c-6.74-7.66-14.56-14.19-22.07-21.04
		c-2.46-3.34-7.68-4.54-7.62-9.83c3.41,0.03,4.1,4.06,7.05,4.76c1.15,3.55,4.41,5.24,6.86,7.61c4.87,4.7,9.92,9.21,14.9,13.8
		c1.64,1.41,3.28,2.83,4.92,4.24c1.18,1.21,2.36,2.42,3.54,3.63C293.08,392.66,292.61,393.51,291.51,393.6z"/>
	<path class="st7" d="M287.06,512.61c0,11.06-0.01,22.12,0,33.18c0.01,6.26,0.62,6.66,7.02,4.69c0.23,0.99,1.05,1,1.81,1.12
		c-2.67,1.97-5.66,0.62-8.5,0.76c-1.83,0.09-1.86-1.56-1.86-2.9c-0.03-12.27-0.04-24.54-0.06-36.81c0-1.71,0.52-3,2.49-2.94
		c10.73,0.35,21.49-0.82,32.19,0.66c-9.64,0.06-19.28,0.07-28.92,0.21C289.64,510.59,287.29,509.59,287.06,512.61z"/>
	<path class="st8" d="M334.03,424.67c-0.62-1.33-1.81-1.24-2.98-1.21c-0.33-1.71-1.26-2.95-2.72-3.93
		c-6.46-4.28-12.88-8.62-19.31-12.94c-0.99-0.6-1.98-1.21-2.97-1.81c-1.12-1.04-2.2-2.14-3.8-2.45c-0.77-0.99-1.62-1.85-2.94-2.05
		c0.47-0.71,0.95-1.43,1.42-2.14c0.42,0.06,0.85,0.12,1.27,0.18c0.17,0.25,0.4,0.36,0.7,0.34c0.41,0.3,0.82,0.59,1.22,0.89
		l0.05,0.06c1.43,1,2.86,2.01,4.29,3.01c6.32,5.55,13.68,9.66,20.39,14.66c0.73,0.55,1.52,0.54,2.32,0.19
		c0.44,1.47,1.58,1.94,2.96,2.06c0.82,1.48,1.77,2.8,3.61,3.08c-0.46,0.68-0.92,1.37-1.38,2.05
		C335.45,424.66,334.74,424.67,334.03,424.67z"/>
	<path class="st9" d="M318.06,519.4c2.81,0.5,1.88,2.75,1.9,4.38c0.08,7.64,0.12,15.28-0.01,22.92c-0.05,2.8,0.93,3.78,3.75,3.78
		c2.8,0,3.31-1.29,3.29-3.67c-0.08-8.3-0.05-16.61-0.01-24.92c0.01-1.6-0.55-3.36,0.9-4.71c1.8,10.83,0.41,21.74,0.83,32.6
		c0.1,2.57-2.49,2.35-3.46,2.45c-2.21,0.23-4.88,1.51-6.81-0.94c0.79-9.97,1.17-19.94-0.24-29.89c-0.15-0.25-0.25-0.52-0.29-0.81
		C317.97,520.2,318.01,519.8,318.06,519.4z"/>
	<path class="st9" d="M200.2,511.3c-6.58,2.01-8.79,6.55-8.21,13.2c0.65,7.55-0.81,15.22,1.09,22.72c-2.4-1.51-2.89-3.87-2.88-6.47
		c0.01-6.32-0.09-12.65,0.01-18.97c0.11-6.75,2.64-9.96,8.69-11.43C199.34,510.67,199.77,510.99,200.2,511.3z"/>
	<path class="st9" d="M143.22,521.25c1.61,6.18,0.55,12.48,0.71,18.72c0.2,7.67,2.77,10.42,10.56,10.46
		c7.79,0.04,15.57-0.02,23.36,0.02c1.85,0.01,3.64-0.07,5.32-0.9c-0.15,3-2.51,1.82-3.91,1.84c-10.09,0.13-20.18,0.09-30.27,0.11
		c-4.09-1.12-6.3-3.83-6.78-8c1.31-1.41,0.8-3.16,0.83-4.77C143.15,532.9,143.17,527.07,143.22,521.25z"/>
	<path class="st7" d="M183.72,516.56c-6.2-6.67-14.34-5.08-22.08-5.19c-3.46-0.05-6.91-0.07-10.37-0.11
		c-0.08-0.34-0.16-0.68-0.24-1.02c8.32-1.15,16.68-0.74,25-0.19C179.9,510.31,182.74,512.53,183.72,516.56z"/>
	<path class="st7" d="M200.2,511.3c-0.43-0.32-0.87-0.63-1.3-0.95c10.72-1.49,21.48-0.4,32.23-0.59c1.83-0.03,1.99,1.37,1.86,2.81
		c-4.72-2.12-9.7-1.01-14.57-1.16C212.35,511.23,206.28,511.33,200.2,511.3z"/>
	<path class="st5" d="M199.09,465.44c-3.81,2.34-2.02,5.64-1.19,8.52c0.66,2.29,2.08,4.36,3.16,6.53c-3.44-1.75-4.92-4.83-4.99-8.4
		c-0.13-6.88,0.09-13.76,0.16-20.65c0.96,0.02,1.92,0.04,2.88,0.07C199.1,456.15,199.1,460.79,199.09,465.44z"/>
	<path class="st9" d="M278.14,514.39c-9.99-5.02-20.59-2.7-30.97-2.39c-4.43,0.14-6,4.13-7.85,7.43c-0.36-0.06-0.73-0.12-1.09-0.18
		c0.71-5.06,3.34-8.26,8.61-8.9c8.47-0.01,16.95-0.02,25.42-0.03C274.9,510.69,277.49,511.14,278.14,514.39z"/>
	<path class="st10" d="M116.03,541.47c2.99,0.07,3.87,2.67,5.38,4.52c1.99,2.43,3.79,4.76,7.61,4.63c3.2-0.11,4.61-0.98,4.08-4.23
		c1.22,1.28,2.91,2.62,2.14,4.49c-0.79,1.92-3.03,1.31-4.72,1.73c-5.59,1.39-7.99-2.51-10.69-6
		C118.53,544.91,117.3,543.18,116.03,541.47z"/>
	<path class="st7" d="M148.99,551.49c10.09-0.02,20.18,0.02,30.27-0.11c1.4-0.02,3.76,1.17,3.91-1.84c0.01-1.71,0.03-3.41,0.04-5.12
		c0.96-0.73,0.1-1.25-0.2-1.84c0.6-0.02,1.2-0.05,1.8-0.07c1.26,10.03,1.26,10.02-8.31,9.98c-7.43-0.03-14.86,0.02-22.3-0.04
		C152.44,552.43,150.55,552.76,148.99,551.49z"/>
	<path class="st7" d="M183.03,534.27c0.77-5.34-1.05-10.85,1.09-16.1c2.14,5.6,0.83,11.38,0.83,17.09c0,0.93-1.09,1.05-1.97,0.89
		C182.99,535.53,183.01,534.9,183.03,534.27z"/>
	<path class="st9" d="M287.06,512.61c0.23-3.02,2.59-2.02,4.17-2.04c9.64-0.14,19.28-0.16,28.92-0.21c0.33,0.34,0.66,0.68,0.99,1.02
		c-9.29,0.03-18.57,0.04-27.86,0.09C291.15,511.47,288.93,511.14,287.06,512.61z"/>
	<path class="st9" d="M183.03,534.27c-0.02,0.63-0.04,1.25-0.05,1.88c-0.64,0.01-1.28,0.03-1.92,0.04
		c-0.93-0.92-2.11-0.76-3.25-0.76c-8.54,0.02-17.08,0.05-25.62,0.08c0.54-2.19,2.32-1,3.4-1.02
		C164.73,534.32,173.88,534.33,183.03,534.27z"/>
	<path class="st7" d="M135.19,525.76c-1.65-5.84-1.55-11.68-0.07-17.53C136.47,514.06,136.35,519.91,135.19,525.76z"/>
	<path class="st11" d="M184.81,542.51c-0.6,0.02-1.2,0.05-1.8,0.07c-5.78-0.05-11.57,0.05-17.35-0.2c-4.56-0.2-9.22,0.99-13.69-0.79
		c0,0,0.34-0.33,0.34-0.33c9.11,0.12,18.21,0.21,27.32,0.4C181.36,541.7,183.3,540.95,184.81,542.51z"/>
	<path class="st8" d="M295.03,520.42c0.34-0.11,0.68-0.22,1.03-0.33c0.07,0.18,0.19,0.29,0.38,0.33
		c-0.18,10.39-0.37,20.79-0.55,31.18c-0.76-0.12-1.59-0.13-1.81-1.12c1.87-3.76,0.66-7.76,0.81-11.64"/>
	<path class="st7" d="M318.21,521.41c1.41,9.95,1.03,19.92,0.24,29.89C317.63,541.34,318.04,531.37,318.21,521.41z"/>
	<path class="st7" d="M152.19,535.52c8.54-0.03,17.08-0.06,25.62-0.08c1.14,0,2.32-0.15,3.25,0.76c-7.82,0.09-15.64,0.15-23.45,0.29
		c-1.82,0.03-3.63,0.29-5.44,0.44C152.17,536.46,152.18,535.99,152.19,535.52z"/>
	<path class="st5" d="M380.55,240.09c5.76-3.52,10.19-2.93,14.94,2c-0.19,0.18-0.38,0.35-0.57,0.52c-4.18-3.84-8.94-3.7-13.92-1.99
		C380.85,240.44,380.7,240.27,380.55,240.09z"/>
	<path class="st8" d="M238.23,519.25c0.36,0.06,0.73,0.12,1.09,0.18c-0.1,8.53-0.2,17.05-0.3,25.58c-2.07-4.02-0.71-8.32-0.92-12.48
		C237.88,528.12,238.16,523.68,238.23,519.25z"/>
	<path class="st7" d="M272.26,510.32c-8.47,0.01-16.95,0.02-25.42,0.03C255.31,509.21,263.79,509.33,272.26,510.32z"/>
	<path class="st5" d="M215.11,336.47c-4.26-0.78-8.47-1.95-12.86-1.85C207.54,332.01,211.24,332.55,215.11,336.47z"/>
	<path class="st10" d="M127.14,539.4c-2.45,0.1-3.12-1.58-3.26-3.51c-0.14-2,1.43-2.94,3.01-3.26c1.76-0.35,3.31-1.68,5.25-1.17
		c-1.51,3-4.93,2.43-7.52,3.86C125.52,536.78,126.33,538.09,127.14,539.4z"/>
	<path class="st10" d="M143.22,521.25c-0.05,5.82-0.08,11.65-0.18,17.47c-0.03,1.61,0.48,3.36-0.83,4.77
		c-0.01-8.06-0.02-16.11-0.03-24.17c0.4,0.05,0.8,0.09,1.19,0.14C143.33,520.05,143.27,520.65,143.22,521.25z"/>
	<path class="st7" d="M271.06,552.07c-7.75,0.71-15.49,0.61-23.24,0.01c-0.01-0.26,0.05-0.5,0.18-0.72
		c7.67-0.01,15.35-0.02,23.02-0.03C271.11,551.57,271.12,551.82,271.06,552.07z"/>
	<path class="st7" d="M318.06,519.4c-0.05,0.4-0.09,0.8-0.14,1.2c-7.12-0.05-14.25-0.1-21.37-0.15c0.12-0.32,0.25-0.64,0.38-0.96
		c7.03-0.03,14.05-0.06,21.08-0.09C318.01,519.4,318.06,519.4,318.06,519.4z"/>
	<path class="st8" d="M280,541.44c0.05-7.04,0.1-14.07,0.15-21.11c2.13,4.45,0.58,9.16,0.94,13.73c0.2,2.43-0.06,4.89-0.12,7.33
		C280.65,541.46,280.33,541.48,280,541.44z"/>
	<path class="st8" d="M94.56,534.86c-0.49-0.1-0.97-0.21-1.46-0.31c5.73-1.67,11.46-1.88,17.18,0.04
		C105.04,534.67,99.8,534.76,94.56,534.86z"/>
	<path class="st3" d="M199.11,451.51c-0.96-0.02-1.92-0.04-2.88-0.07c-0.04-0.66-0.09-1.31-0.13-1.97c2.3-1.36-0.81-5.43,3-6.04
		C199.11,446.13,199.11,448.82,199.11,451.51z"/>
	<path class="st10" d="M238.97,544.92c2.86,2.11,4.83,5.65,9,5.68c0.02,0.25,0.03,0.5,0.03,0.76c-0.13,0.22-0.19,0.46-0.18,0.72
		C243.26,551.69,239.9,549.81,238.97,544.92z"/>
	<path class="st5" d="M201.43,480.71c4.42,0.93,8.8,1.09,13.05-0.8C210.34,483.56,205.99,483.82,201.43,480.71z"/>
	<path class="st5" d="M218.68,346.56c-2.92-2.27-1.54-5.58-2.04-8.44C218.72,340.6,219.36,343.42,218.68,346.56z"/>
	<path class="st10" d="M280,541.44c0.33,0.04,0.65,0.02,0.98-0.04c-0.14,2.71-0.36,5.38-2.9,7.1
		C278.05,545.96,278.8,543.64,280,541.44z"/>
	<path class="st10" d="M131.17,544.37c-2.77-0.51-4.23-2.09-4.05-4.99C128.99,540.62,130.33,542.29,131.17,544.37z"/>
	<path class="st5" d="M216.48,477.89c0.6-1.86-0.28-4.27,2.07-5.47C218.66,474.55,218.11,476.43,216.48,477.89z"/>
	<path class="st10" d="M271.06,552.07c0.06-0.25,0.05-0.5-0.04-0.74c0-0.26,0.02-0.52,0.04-0.78c1.34-0.03,2.68-0.06,4.02-0.09
		C274.35,552.52,272.49,551.76,271.06,552.07z"/>
	<path class="st9" d="M148.06,512.48c-1.34,1.02-2.15,2.86-4.22,2.77c0.26-2.44,2.01-3.38,4.05-4.02
		C147.95,511.65,148.01,512.06,148.06,512.48z"/>
	<path class="st7" d="M396.81,522.52c-1.35-2.72-1.31-5.44-0.01-8.16C397.57,517.07,397.52,519.79,396.81,522.52z"/>
	<path class="st9" d="M143.38,519.46c-0.4-0.04-0.8-0.09-1.19-0.14c-0.2-1.67-0.16-3.23,1.69-4.03
		C144.28,516.75,144.29,518.16,143.38,519.46z"/>
	<path class="st10" d="M148.06,512.48c-0.06-0.42-0.11-0.83-0.17-1.25c0.83-1.01,2.01-0.89,3.13-0.98c0.08,0.34,0.16,0.68,0.24,1.02
		C150.2,511.67,149.13,512.08,148.06,512.48z"/>
	<path class="st5" d="M215.76,395.32c0.88-0.8,1.77-1.61,2.65-2.41c0.09,0.87,0.18,1.75,0.27,2.63
		C217.71,395.46,216.73,395.39,215.76,395.32z"/>
	<path class="st10" d="M114.2,538.62c1.85,0.16,2.2,1.29,1.85,2.86C114.73,540.98,114.05,540.07,114.2,538.62z"/>
	<path class="st5" d="M377.51,243.13c0.65-1.38,1.67-2.38,3.04-3.04c0.15,0.17,0.3,0.35,0.45,0.53c-1,1-2,1.99-2.99,2.99
		C377.84,243.45,377.67,243.29,377.51,243.13z"/>
	<path class="st7" d="M233,517.43c-1.34-1.01-1.29-2.01,0.02-3C233.47,515.42,233.48,516.43,233,517.43z"/>
	<path class="st5" d="M214.58,479.9c-0.55-1.81,0.1-2.44,1.91-1.95C216.21,478.95,215.58,479.6,214.58,479.9z"/>
	<path class="st5" d="M218.64,385.54c-2.09-0.72-0.74-1.36,0.05-2.02C218.67,384.2,218.66,384.87,218.64,385.54z"/>
	<path class="st9" d="M279.42,516.38c-0.46-0.68-0.92-1.35-1.39-2.03C279.33,514.45,279.26,515.49,279.42,516.38z"/>
	<path class="st7" d="M396.75,548.5c-1.08-1.07-1.08-2.13,0.04-3.18C397.35,546.39,397.37,547.45,396.75,548.5z"/>
	<path class="st5" d="M216.56,337.99c-1.3,0.27-1.43-0.57-1.45-1.52C215.99,336.59,216.34,337.22,216.56,337.99z"/>
	<path class="st7" d="M396.79,532.51c-0.94-0.73-0.94-1.45,0.02-2.17C397.27,531.07,397.27,531.79,396.79,532.51z"/>
	<path class="st9" d="M323.22,512.42c-0.96,0.08-1.81-0.1-2.23-1.11C321.86,511.43,322.91,511.19,323.22,512.42z"/>
	<path class="st10" d="M276.27,549.8c-0.04-1.33,0.74-1.53,1.82-1.33C277.88,549.47,277.44,550.13,276.27,549.8z"/>
	<path class="st10" d="M133.11,530.47c-0.35-1.03,0.03-1.79,0.9-2.35C134.59,529.24,134.14,529.97,133.11,530.47z"/>
	<path class="st10" d="M132.15,545.39c-0.78,0.08-1.06-0.33-1.02-1.04C131.88,544.29,132.15,544.71,132.15,545.39z"/>
	<path class="st10" d="M133.13,546.41c-0.75,0.04-1.09-0.3-1.01-1.05C132.8,545.39,133.11,545.76,133.13,546.41z"/>
	<path class="st8" d="M331.87,377.95c0,0-0.04-0.12-0.04-0.13c0-0.01,0.09,0.2,0.09,0.2L331.87,377.95z"/>
	<path class="st10" d="M132.12,531.49c-0.06-0.73,0.28-1.09,1.02-1.05C133.1,531.09,132.79,531.47,132.12,531.49z"/>
	<path class="st10" d="M275.03,550.49c0.07-0.74,0.48-1,1.19-0.86C276.35,550.64,275.55,550.37,275.03,550.49z"/>
	<path class="st7" d="M395.94,551.56c0.29-0.41,0.57-0.83,0.86-1.24C397.17,551.18,396.76,551.51,395.94,551.56z"/>
	<path class="st5" d="M376.82,244.44c0.23-0.44,0.46-0.87,0.69-1.31c0.17,0.16,0.34,0.32,0.5,0.48c-0.29,0.36-0.58,0.72-0.87,1.09
		C377.14,244.7,376.82,244.44,376.82,244.44z"/>
	<path class="st11" d="M245.14,364.53c0.32-1.81,1.84-2.79,2.81-4.16c0.44-0.37,0.89-0.75,1.33-1.12c0.37-0.05,0.64,0.1,0.79,0.45
		c1.86,2.93,1.94,6.17,1.93,9.53c-0.06,20.29,0,40.58,0.02,60.88c0,0.33,0.06,0.67,0.01,1c-0.42,2.46,0.43,6.19-3.19,6.25
		c-4.07,0.07-2.86-3.77-2.87-6.17c-0.08-20.46-0.02-40.92-0.06-61.37C245.91,368.04,246.49,366.12,245.14,364.53z"/>
	<path class="st11" d="M247.22,351.55c-2.15-1.19-1.24-3.25-1.25-4.92c-0.08-19.43-0.09-38.86-0.04-58.29
		c0.01-2.31-0.88-5.71,2.94-5.65c3.52,0.05,3.13,3.33,3.13,5.72c0.03,20.43-0.03,40.85-0.06,61.28
		C250.37,350.3,248.8,350.92,247.22,351.55z"/>
	<path class="st9" d="M94.16,524.3c8.89-0.01,17.78-0.02,26.67-0.02c1.79,0,3.6,0.21,5.17-0.95c-0.11,2.89-2.42,2.91-4.29,2.94
		c-8.28,0.12-16.56,0.07-24.84,0.06C95.49,526.34,94.15,526.21,94.16,524.3z"/>
	<path class="st10" d="M126.01,511.56c-2.23-1.58-4.79-0.92-7.21-0.94c-8.14-0.08-16.27-0.05-24.41-0.06
		c-0.48-0.05-0.95-0.09-1.43-0.14c0.75-1.17,1.94-1.12,3.11-1.12c8.83,0.01,17.65-0.01,26.48,0.06
		C124.06,509.37,126.19,508.76,126.01,511.56z"/>
	<path class="st9" d="M92.97,510.43c0.48,0.05,0.95,0.09,1.43,0.14c-0.88,4.59-0.52,9.2-0.18,13.8c-1.12,0.06-2.04-0.4-1.99-1.56
		C92.42,518.68,91.22,514.46,92.97,510.43z"/>
	<path class="st12" d="M199.11,451.51c0-2.69,0-5.38,0-8.07c0-2.31,0-4.61,0-6.92c0-1.69,0-3.39,0-5.08c0-5.97,0-11.94,0-17.91
		c0-3.03,0-6.06,0.01-9.08c0-2.64-0.01-5.27-0.01-7.91c0-2.69,0-5.39,0-8.08c0-2.97,0-5.94,0-8.91c0-4.69,0-9.38,0-14.08
		c0-2.97,0-5.94,0-8.92c0-0.69,0-1.38,0-2.07c-0.01-1.97-0.01-3.95-0.02-5.92c0-1.03,0-2.06,0-3.09c0.01-1.24,0.01-2.48,0.02-3.73
		c5.08-2.25,5.74-1.77,6.07,3.3c1.08,16.65,1.11,33.3,0.24,49.96c-0.06,1.11,0.43,2.24,0.67,3.36c-5.17,0.8-5.57,4.04-4.19,8.19
		c-0.07,0.11-0.23,0.27-0.2,0.33c0.1,0.21,0.27,0.39,0.42,0.58l0.01-0.1c5.18,8.31,2.52,17.54,2.95,26.38
		c0.58,11.77-0.52,23.57,0.51,35.36c0.18,2.09-0.01,5.1-3.23,5.27c-3.46,0.18-3.23-2.58-3.24-4.94c-0.01-1.33-0.02-2.66-0.02-3.99
		C199.1,460.79,199.1,456.15,199.11,451.51z"/>
	<path class="st9" d="M174.11,525.31c0.79-3.77-0.4-5.54-4.56-4.99c-5.81,0.77-11.82-1.29-17.55,1.08
		c-0.11-2.02,0.68-3.01,2.87-2.98c5.78,0.08,11.57-0.12,17.34,0.07c4.05,0.13,4.76,2.3,2.97,8.08
		C174.82,526.15,174.47,525.73,174.11,525.31z"/>
	<path class="st10" d="M174.11,525.31c0.36,0.42,0.72,0.84,1.08,1.26c-7.39,1.89-14.89,0.47-22.34,0.73
		c-1.44,0.05-2.13-0.89-0.74-2.18C159.44,525.18,166.77,525.25,174.11,525.31z"/>
	<path class="st9" d="M151.97,541.59c4.47,1.78,9.13,0.59,13.69,0.79c5.77,0.25,11.56,0.15,17.35,0.2c0.3,0.59,1.16,1.12,0.2,1.84
		c-6.44-1.95-13.03-0.54-19.55-0.9c-3.44-0.19-6.89,0-10.34-0.06C152.24,543.43,150.73,543.44,151.97,541.59z"/>
	<path class="st7" d="M247.25,520.23c0.68-1.4,1.92-1.68,3.32-1.68c5.8,0.01,11.6,0.07,17.4-0.03c3.07-0.05,4.08,1.44,4.04,4.28
		c-0.08,5.47-0.04,10.94-0.05,16.41c0,1.91-0.11,3.99-2.58,4.03c-6.79,0.12-13.58,0.04-20.37-0.09c-0.63-0.01-1.24-0.96-1.86-1.47
		c0.41-0.13,0.83-0.25,1.24-0.38c6.42,0.92,12.87,0.2,19.31,0.45c2.24,0.09,2.79-1.07,2.76-3.05c-0.06-4.96-0.15-9.93,0.02-14.88
		c0.09-2.66-0.95-3.47-3.47-3.39c-6.11,0.17-12.23,0.17-18.34,0.24C248.2,520.53,247.72,520.38,247.25,520.23z"/>
	<path class="st9" d="M271.06,550.55c-0.02,0.26-0.04,0.52-0.04,0.78c-7.67,0.01-15.35,0.02-23.02,0.03c0-0.25-0.01-0.51-0.03-0.76
		C255.67,550.58,263.37,550.56,271.06,550.55z"/>
	<path class="st10" d="M248.4,541.31c-0.42,0.12-0.83,0.25-1.24,0.38c0.03-7.15,0.06-14.3,0.09-21.45c0.48,0.15,0.95,0.29,1.42,0.44
		C248.58,527.55,248.49,534.43,248.4,541.31z"/>
	<path class="st4" d="M302.69,398.66c-0.3,0.02-0.53-0.09-0.7-0.34c-0.85-1.78,2.05-5.22-2.39-5.42l0.06,0
		c-0.08-0.86-0.58-1.15-1.39-1.02l-0.34-0.11c0.08-1.29-0.43-2.13-1.77-2.34c-0.02-2.31-0.03-4.61-0.05-6.92
		c0.11-0.1,0.34-0.23,0.32-0.3c-0.06-0.26-0.2-0.49-0.31-0.74c-0.02-27.8-0.07-55.6-0.05-83.4c0-3.41-0.32-6.19-4.85-5.29
		c-0.73-0.52-1.31-1.17-0.7-2.05c2.05-2.97,5.16-3.76,8.37-3.09c3.06,0.64,6.38,2.02,6.91,5.52c0.51,3.4,1.29,6.78,1.27,10.32
		c-0.14,22.77-0.03,45.55-0.09,68.33c-0.02,8.61-0.38,17.22-0.39,25.84c0,2.31-1.54,1.63-2.65,1.95c0,0-0.05-0.06-0.05-0.06
		C303.51,399.25,303.1,398.96,302.69,398.66z"/>
	<path class="st12" d="M291.24,292.8c4.53-0.9,4.85,1.88,4.85,5.29c-0.02,27.8,0.02,55.6,0.05,83.4c0,0.34-0.01,0.69-0.01,1.03
		c0.02,2.31,0.03,4.61,0.05,6.92c-0.04,0.62-0.08,1.23-0.13,1.85c-0.81,0.19-1.63,0.39-2.44,0.58c-1.18-1.21-2.36-2.42-3.54-3.63
		c1.22-6.83,0.02-13.67,0.02-20.5c-0.02-22.21,0.03-44.42-0.05-66.63C290.02,298.25,290.93,295.59,291.24,292.8z"/>
	<path class="st9" d="M318.01,519.4c-7.03,0.03-14.05,0.06-21.08,0.09C303.95,517.77,310.97,517.86,318.01,519.4z"/>
	<path class="st9" d="M296.06,520.09c-0.34,0.11-0.68,0.22-1.03,0.33C295.17,519.69,295.42,519.27,296.06,520.09z"/>
	<path class="st4" d="M302.24,402.34c1.59,0.31,2.67,1.41,3.8,2.45c1.72,19.03,0.89,38.06,0.57,57.12
		c-0.11,6.4,0.22,12.9,0.41,19.35c0.15,5.2-3.58,7.64-7.38,9.72c-2.78,1.52-5.44,0.2-7.82-1.58c-1.47-1.1-2.68-2.18-0.82-3.94
		c5.31,2.51,5.06-1.25,5.06-4.56c0.04-25.46,0.06-50.92,0.08-76.38C298.17,403.78,300.21,403.06,302.24,402.34z"/>
	<path class="st12" d="M296.13,404.51c-0.02,25.46-0.04,50.92-0.08,76.38c-0.01,3.31,0.25,7.07-5.06,4.56
		c-0.66-1.36-0.93-2.79-0.93-4.32c0.03-25.71,0.02-51.41,0.04-77.12c0-0.63,0.18-1.26,0.29-1.95
		C292.98,401.57,293.83,404.76,296.13,404.51z"/>
	<path class="st11" d="M334.03,424.67c0.71-0.01,1.42-0.02,2.13-0.03c-1.19,4.32,0.49,6.73,4.88,7.36
		c-0.02,13.56-0.19,27.13,0.01,40.69c0.07,4.55-1.33,6.97-6.09,6.79c-1.75-16.08-0.42-32.22-0.8-48.33
		C334.1,429,334.07,426.84,334.03,424.67z"/>
	<path class="st11" d="M341.99,422.47c-1.49,0.04-2.97,0.08-4.46,0.13c-1.84-0.28-2.79-1.6-3.61-3.08
		c0.07-11.45,0.13-22.89,0.2-34.34c0.01-1.33-0.13-2.68,0.06-3.98c0.33-2.16,0.81-4.6,3.61-4.56c2.93,0.05,3.14,2.56,3.15,4.74
		c0.04,11.78,0,23.57,0,35.35C340.94,418.7,340.63,420.74,341.99,422.47z"/>
	<path class="st3" d="M377.14,244.7c0.29-0.36,0.58-0.72,0.87-1.09c1-1,2-1.99,2.99-2.99c4.98-1.71,9.73-1.85,13.92,1.99
		c1.58,4.77,2.11,9.63,2.11,14.67c-0.08,70.53-0.05,141.06-0.06,211.59c0,2.16-0.1,4.32-0.15,6.48c-2.16,1.74-4.16,3.73-6.51,5.15
		c-4.24,2.58-10.56-0.02-12.1-4.8c-0.49-1.53-0.44-3,1.71-3.24c0.03,2.17,0.42,4.21,3.23,3.94c2.36-0.23,2.64-2.24,2.77-4.1
		c0.12-1.66,0.05-3.33,0.05-4.99c0.02-36.29,0.04-72.58,0.05-108.87c1.1-0.72,2.24-1.39,3.29-2.17c3.49-2.63,3.5-7.11,0.07-9.78
		c-0.33-0.07-0.52-0.28-0.55-0.62c-0.28-1.68-1.5-2.56-2.83-3.35c-0.01-29.95-0.01-59.89-0.06-89.84c-0.01-2.65,0.94-6.7-2.83-6.86
		c-4.77-0.2-3.04,4.3-3.05,6.88c-0.17,32.27-0.19,64.55-0.26,96.82c-1.22,2-1.33,3.99,0.07,5.96c0.05,0.66,0.1,1.33,0.14,1.99
		c-3.97,0.3-3.02-2.65-3.02-4.77c-0.04-22.23-0.05-44.47-0.02-66.7C376.98,272.23,377.07,258.47,377.14,244.7z"/>
	<path class="st12" d="M386.02,358.45c-0.02,36.29-0.04,72.58-0.05,108.87c0,1.66,0.06,3.34-0.05,4.99
		c-0.13,1.86-0.41,3.87-2.77,4.1c-2.81,0.27-3.19-1.77-3.23-3.94c0.03-30.89,0.08-61.77,0.07-92.66c0-4.54,2.34-9.3-1.11-13.56
		c0.43-0.94,0.85-1.88,1.28-2.82c3.04,0.05,2.89-1.8,2.33-3.9c-0.01-0.25,0.1-0.43,0.32-0.54
		C383.99,359.49,384.97,358.76,386.02,358.45z"/>
	<path class="st3" d="M199.11,365.47c0,4.69,0,9.38,0,14.08C196.17,376.84,196.17,368.18,199.11,365.47z"/>
	<path class="st3" d="M199.12,404.45c0,3.03,0,6.05-0.01,9.08C196.19,410.86,196.2,407.12,199.12,404.45z"/>
	<path class="st3" d="M199.11,388.46c0,2.69,0,5.38,0,8.08C195.82,393.85,195.81,391.15,199.11,388.46z"/>
	<path class="st3" d="M199.11,431.44c0,1.69,0,3.39,0,5.08C195.85,434.83,195.85,433.13,199.11,431.44z"/>
	<path class="st3" d="M199.1,354.49c0,0.69,0,1.38,0,2.07c-0.75-0.15-1.78-0.14-1.53-1.26C197.65,354.93,198.57,354.75,199.1,354.49
		z"/>
	<path class="st4" d="M199.09,345.48c0,1.03,0,2.06,0,3.09C197.73,347.53,197.74,346.51,199.09,345.48z"/>
	<path class="st12" d="M380,357.47c-0.05-0.66-0.1-1.33-0.14-1.99c0.73,0.01,1.46,0.01,2.19,0.02c-0.47,0.65-0.93,1.31-1.4,1.96
		C380.43,357.46,380.22,357.47,380,357.47z"/>
	<path class="st5" d="M382.05,355.5c-0.73-0.01-1.46-0.01-2.19-0.02c-1.4-1.97-1.29-3.96-0.07-5.96c0,0,0.44,0.06,0.44,0.06
		l0.45-0.01c0.59,3.74,2.6,6.01,6.47,4.71c4.01-1.35,3.7-4.55,2.22-7.79c3.43,2.67,3.42,7.16-0.07,9.78
		c-1.05,0.79-2.19,1.45-3.29,2.17c-1.05,0.31-2.03,1.04-3.22,0.54C382.79,357.77,383.73,356.35,382.05,355.5z"/>
	<path class="st5" d="M382.48,359.52c0.56,2.1,0.71,3.95-2.33,3.9C380.63,361.95,381.27,360.56,382.48,359.52z"/>
	<path class="st5" d="M300.72,398.14c0.33-1.9-0.52-3.54-1.12-5.23c4.44,0.2,1.54,3.64,2.39,5.42
		C301.57,398.26,301.15,398.2,300.72,398.14z"/>
	<path class="st5" d="M302.69,398.66c0.41,0.3,0.82,0.59,1.22,0.89C303.5,399.25,303.1,398.96,302.69,398.66z"/>
	<path class="st3" d="M201.9,406.56c0.07,0.3,0.14,0.61,0.21,0.91c-0.14-0.19-0.32-0.37-0.42-0.58
		C201.66,406.83,201.82,406.68,201.9,406.56z"/>
	<path class="st5" d="M297.94,391.78c-0.63-0.16-1.27-0.32-1.9-0.48c0.04-0.62,0.08-1.23,0.13-1.85
		C297.51,389.65,298.02,390.49,297.94,391.78z"/>
	<path class="st5" d="M296.12,382.52c0-0.34,0.01-0.69,0.01-1.03c0.11,0.24,0.25,0.48,0.31,0.74
		C296.46,382.3,296.24,382.42,296.12,382.52z"/>
	<path class="st5" d="M299.67,392.91c-0.46-0.34-0.92-0.68-1.39-1.02C299.08,391.76,299.59,392.05,299.67,392.91z"/>
	<path class="st12" d="M380.68,349.57l-0.45,0.01c0,0-0.44-0.06-0.44-0.06c0.06-32.27,0.08-64.55,0.25-96.82
		c0.01-2.58-1.72-7.08,3.05-6.88c3.77,0.16,2.83,4.21,2.83,6.86c0.06,29.95,0.05,59.89,0.06,89.84c-0.08,0.76-0.15,1.52-0.23,2.28
		C382.57,344.8,381.36,346.9,380.68,349.57z"/>
	<path class="st5" d="M388.82,345.87c-1.05-0.27-2.29,0-3.06-1.07c0.08-0.76,0.15-1.52,0.23-2.28
		C387.32,343.31,388.54,344.2,388.82,345.87z"/>
</g>
</svg>
