<?xml version="1.0" encoding="utf-8"?>
<!-- Generator: Adobe Illustrator 24.0.0, SVG Export Plug-In . SVG Version: 6.00 Build 0)  -->
<svg version="1.1" id="Layer_1" xmlns="http://www.w3.org/2000/svg" xmlns:xlink="http://www.w3.org/1999/xlink" x="0px" y="0px"
	 viewBox="0 0 612 792" style="enable-background:new 0 0 612 792;" xml:space="preserve">
<style type="text/css">
	.st0{fill:#504C49;}
	.st1{fill:#E15D29;}
	.st2{fill:#E45A27;}
	.st3{fill:#DD6934;}
	.st4{fill:#4A4744;}
	.st5{fill:#312926;}
	.st6{fill:#7F7B77;}
	.st7{fill:#EE8758;}
</style>
<g>
	<path class="st0" d="M241.22,362.56c-0.11-16.97-0.23-33.94-0.31-50.91c-0.04-7.82-0.06-15.65,0.03-23.47
		c0.08-7.18,4.6-12.03,11.11-12.16c6.53-0.13,11.48,4.54,11.63,11.71c0.24,11.32,0.13,22.64,0.07,33.96
		c-0.07,13.64-0.24,27.27-0.36,40.91c-2.95-0.7-3.64-4.74-7.05-4.76c-0.13-0.13-0.26-0.26-0.4-0.39c1.17-3.87-0.06-6.51-3.99-7.76
		c0.03-20.43,0.09-40.85,0.06-61.28c0-2.39,0.39-5.67-3.13-5.72c-3.81-0.06-2.93,3.35-2.94,5.65c-0.05,19.43-0.04,38.86,0.04,58.29
		c0.01,1.67-0.91,3.73,1.25,4.92c-1.12,3.05-0.52,5.64,2.06,7.7c-0.44,0.37-0.89,0.74-1.33,1.12
		C244.64,357.81,243.82,362.91,241.22,362.56z"/>
	<path class="st0" d="M263.96,367.66c-0.06,20.76-0.12,41.52-0.21,62.29c-0.01,1.98-0.03,4.01-0.45,5.94
		c-1.24,5.71-6.21,9.18-12.17,8.7c-5.66-0.46-10.12-4.93-10.15-10.96c-0.08-21.59,0.06-43.18,0.12-64.78
		c0.61-2.13,2.26-3.29,4.04-4.33c1.35,1.6,0.76,3.51,0.77,5.28c0.04,20.46-0.02,40.92,0.06,61.37c0.01,2.4-1.2,6.23,2.87,6.17
		c3.62-0.06,2.77-3.79,3.19-6.25c0.06-0.32-0.01-0.66-0.01-1c-0.02-20.29-0.08-40.58-0.02-60.88c0.01-3.36-0.07-6.6-1.93-9.53
		c2.35,0.28,4.26-0.61,5.87-2.26c0.13,0.13,0.27,0.26,0.4,0.39C256.28,363.12,261.5,364.33,263.96,367.66z"/>
	<path class="st1" d="M201.43,480.71c0,0-0.37-0.22-0.37-0.22c-1.08-2.17-2.5-4.24-3.16-6.53c-0.83-2.88-2.62-6.18,1.19-8.52
		c0.01,1.33,0.02,2.66,0.02,3.99c0.01,2.36-0.23,5.12,3.24,4.94c3.22-0.16,3.42-3.18,3.23-5.27c-1.04-11.79,0.06-23.59-0.51-35.36
		c-0.43-8.84,2.22-18.06-2.95-26.38c6.48,1.96,9.02-0.05,8.29-6.58c1.78-1.82,3.57-3.65,5.35-5.47c0.97,0.07,1.95,0.14,2.92,0.22
		c0.34,25.63,0.59,51.26-0.13,76.89c-2.35,1.19-1.47,3.61-2.07,5.47c0,0,0.01,0.06,0.01,0.06c-1.81-0.5-2.46,0.14-1.91,1.95
		c0,0-0.1,0.01-0.1,0.01C210.23,481.81,205.85,481.64,201.43,480.71z"/>
	<path class="st2" d="M218.64,385.54c0.15,0.64,0.29,1.28,0.44,1.92c-3.53,3.81-7.05,7.63-10.58,11.44
		c-0.8-0.18-1.61-0.36-2.41-0.53c-0.24-1.12-0.73-2.26-0.67-3.36c0.87-16.66,0.83-33.31-0.24-49.96c-0.33-5.07-0.99-5.54-6.07-3.29
		c-0.96-3.19,2.77-4.4,3-7.09c0,0,0.14-0.04,0.14-0.04c4.39-0.1,8.6,1.07,12.86,1.85c0,0,0,0,0,0c0.02,0.95,0.15,1.79,1.45,1.52
		c0,0,0.08,0.14,0.08,0.14c0.51,2.85-0.88,6.17,2.04,8.44c0,12.32,0.01,24.64,0.01,36.96C217.9,384.18,216.55,384.82,218.64,385.54z
		"/>
	<path class="st3" d="M285.15,384.01c0.91-2.76,0.42-5.6,0.42-8.4c0.06-25.44,0.01-50.89,0.07-76.33
		c0.02-7.46,3.68-12.27,9.64-13.05c7.53-0.99,13.21,3.86,13.35,11.81c0.22,12.13,0.2,24.26,0.2,36.38c0,21.58-0.06,43.17-0.12,64.75
		c0,1.15-0.3,2.29-0.46,3.43c-1.43-1-2.86-2.01-4.29-3.01c1.11-0.32,2.65,0.36,2.65-1.95c0.01-8.61,0.36-17.22,0.39-25.84
		c0.06-22.78-0.05-45.55,0.09-68.33c0.02-3.54-0.76-6.92-1.27-10.32c-0.53-3.5-3.85-4.89-6.91-5.52c-3.21-0.66-6.32,0.12-8.37,3.09
		c-0.61,0.88-0.03,1.54,0.7,2.05c-0.31,2.78-1.22,5.45-1.21,8.32c0.08,22.21,0.03,44.42,0.05,66.63c0.01,6.83,1.2,13.67-0.02,20.5
		C288.43,386.83,286.79,385.42,285.15,384.01z"/>
	<path class="st3" d="M309.01,406.59c-0.09,19.91-0.18,39.82-0.27,59.73c-0.02,4.32,0,8.63-0.04,12.95
		c-0.07,8.29-4.51,13.47-11.47,13.4c-7.21-0.06-11.61-5-11.62-13.25c-0.03-24.78-0.03-49.55,0.02-74.33
		c0.01-5.46-0.51-10.95,0.4-16.39c1.82,1.63,3.65,3.26,5.47,4.9c-1.1,6.54,1.46,8.73,7.79,6.68c1.32,0.2,2.17,1.07,2.94,2.05
		c-2.04,0.72-4.07,1.45-6.11,2.17c-2.3,0.25-3.15-2.93-5.74-2.46c-0.11,0.7-0.29,1.33-0.29,1.95c-0.02,25.71-0.01,51.41-0.04,77.12
		c0,1.53,0.26,2.96,0.92,4.32c-1.85,1.76-0.64,2.84,0.82,3.94c2.37,1.78,5.04,3.1,7.82,1.58c3.8-2.08,7.54-4.51,7.38-9.72
		c-0.19-6.45-0.51-12.95-0.41-19.35c0.32-19.05,1.15-38.09-0.57-57.12C307.03,405.39,308.02,405.99,309.01,406.59z"/>
	<path class="st4" d="M352.98,413.48c0.75,19.62,0.32,39.25,0.21,58.88c-0.02,4.38-2.49,7.56-6.5,9.25
		c-4.3,1.81-8.41,1.52-11.95-1.89c0,0,0.23-0.23,0.23-0.23c4.76,0.18,6.16-2.24,6.09-6.79c-0.2-13.56-0.04-27.13-0.01-40.69
		c4.15-0.96,4.44-3.96,3.9-7.39C347.33,420.7,348.28,415.74,352.98,413.48z"/>
	<path class="st4" d="M330.97,417.46c-0.07-11.96-0.15-23.91-0.18-35.87c0-1.31,0.13-2.67,1.04-3.77c0,0.01,0.04,0.13,0.04,0.13
		c3-5.62,7.22-7.73,12.94-6.46c4.89,1.09,8.39,5.32,8.45,10.83c0.08,6.77-0.18,13.55-0.29,20.32c0.49,1.48-0.57,2.43-1.14,3.61
		c-2.7,5.66-7.02,10.44-8.97,16.5c-0.31-0.03-0.59-0.12-0.86-0.28c-1.36-1.73-1.05-3.77-1.05-5.74c0-11.78,0.04-23.57,0-35.35
		c-0.01-2.18-0.22-4.7-3.15-4.74c-2.79-0.04-3.28,2.4-3.61,4.56c-0.2,1.3-0.05,2.65-0.06,3.98c-0.07,11.45-0.13,22.9-0.2,34.34
		C332.55,419.4,331.41,418.93,330.97,417.46z"/>
	<path class="st3" d="M397.21,475.67c-2.66,5.51-6.64,7.76-12.28,6.96c-4.73-0.67-8.47-4.46-9.34-9.68
		c-0.3-1.79-0.29-3.64-0.29-5.46c-0.02-29.73,0.01-59.46-0.04-89.19c0-1.92,0.68-4.02-0.85-5.74c1.49-2.11,2.98-4.21,4.47-6.32
		c3.46,4.26,1.11,9.03,1.11,13.56c0.02,30.89-0.04,61.77-0.07,92.66c-2.15,0.24-2.2,1.71-1.71,3.24c1.53,4.77,7.85,7.37,12.1,4.8
		c2.35-1.42,4.35-3.42,6.51-5.15C396.94,475.46,397.08,475.56,397.21,475.67z"/>
	<path class="st3" d="M395.49,242.09c3.29,2.92,2.89,6.87,2.89,10.67c0.02,39.44,0.02,78.89,0.02,118.33
		c0,32.12,0.02,64.24-0.05,96.36c-0.01,2.75,0.7,5.69-1.15,8.22c-0.13-0.11-0.26-0.21-0.4-0.32c0.05-2.16,0.15-4.32,0.15-6.48
		c0.01-70.53-0.02-141.06,0.06-211.59c0.01-5.04-0.53-9.91-2.11-14.67C395.11,242.44,395.3,242.27,395.49,242.09z"/>
	<path class="st3" d="M202.11,334.66c-0.23,2.69-3.96,3.9-3,7.09c-0.01,1.24-0.01,2.48-0.02,3.73c-1.35,1.03-1.35,2.06,0,3.09
		c0.01,1.97,0.01,3.95,0.02,5.92c-0.53,0.27-1.45,0.45-1.53,0.81c-0.24,1.11,0.78,1.1,1.53,1.26c0,2.97,0,5.94,0,8.92
		c-2.94,2.71-2.94,11.37,0,14.08c0,2.97,0,5.94,0,8.91c-3.29,2.69-3.28,5.39,0,8.08c0,2.64,0.01,5.27,0.01,7.91
		c-2.92,2.67-2.92,6.41,0,9.08c0,5.97,0,11.94,0,17.91c-3.26,1.69-3.27,3.39,0,5.08c0,2.31,0,4.61,0,6.92
		c-3.82,0.61-0.7,4.67-3,6.04c-0.06-26.03-0.13-52.06-0.18-78.09c-0.02-8.79-0.03-17.59,0.05-26.38
		C196.02,340.43,197.45,336.56,202.11,334.66z"/>
	<path class="st3" d="M375.84,364.97c-1.15-3.07-0.5-6.25-0.51-9.38c-0.05-34.19-0.06-68.38-0.02-102.57c0-2.91-0.61-6.01,1.5-8.58
		l0.32,0.26c-0.06,13.77-0.16,27.54-0.18,41.31c-0.03,22.23-0.02,44.47,0.02,66.7c0,2.12-0.95,5.07,3.02,4.77
		c0.22-0.01,0.43-0.01,0.65-0.01C379.05,359.96,377.44,362.46,375.84,364.97z"/>
	<path class="st5" d="M375.84,364.97c1.6-2.5,3.21-5,4.81-7.51c0.47-0.65,0.93-1.31,1.4-1.96c1.68,0.85,0.74,2.27,0.75,3.48
		c-0.22,0.11-0.33,0.29-0.32,0.54c-1.21,1.04-1.85,2.42-2.33,3.9c-0.43,0.94-0.85,1.88-1.28,2.82c-1.49,2.11-2.98,4.22-4.47,6.32
		c-6.06,10.4-12.06,20.85-18.23,31.2c-1.82,3.05-3.11,6.15-3.19,9.72c-4.69,2.26-5.65,7.21-8.04,11.13
		c-0.69-0.62-1.39-1.24-2.08-1.86c1.95-6.06,6.27-10.84,8.97-16.5c0.56-1.18,1.62-2.13,1.14-3.61c0.72,0.28,1.34,0.08,1.7-0.55
		C361.73,389.72,369.64,377.83,375.84,364.97z"/>
	<path class="st4" d="M334.73,479.72c-2.66-1.62-3.87-4.22-3.89-7.09c-0.14-16.39-0.58-32.79,0.21-49.17
		c1.17-0.02,2.36-0.11,2.98,1.21c0.04,2.16,0.08,4.33,0.13,6.49c0.38,16.11-0.95,32.24,0.8,48.33L334.73,479.72z"/>
	<path class="st5" d="M208.5,398.9c3.53-3.81,7.05-7.63,10.58-11.44c7.53-6.7,13.84-14.57,20.86-21.77
		c0.73-0.75,0.87-2.08,1.28-3.14c2.6,0.35,3.41-4.75,6.73-2.19c-0.97,1.36-2.5,2.35-2.81,4.16c-1.78,1.04-3.43,2.2-4.04,4.33
		c-4.38,2.28-7.08,6.39-10.28,9.86c-4.25,4.61-9.22,8.64-12.41,14.19c-0.89,0.81-1.77,1.61-2.65,2.41
		c-1.78,1.82-3.57,3.65-5.35,5.47C209.78,400.16,209.14,399.53,208.5,398.9z"/>
	<path class="st5" d="M291.51,393.6c-1.82-1.63-3.65-3.27-5.47-4.9c-6.74-7.66-14.56-14.19-22.07-21.04
		c-2.46-3.34-7.68-4.54-7.62-9.83c3.41,0.03,4.1,4.06,7.05,4.76c1.15,3.55,4.41,5.24,6.86,7.61c4.87,4.7,9.92,9.21,14.9,13.8
		c1.64,1.41,3.28,2.83,4.92,4.24c1.18,1.21,2.36,2.42,3.54,3.63C293.08,392.66,292.61,393.51,291.51,393.6z"/>
	<path class="st5" d="M334.03,424.67c-0.62-1.33-1.81-1.24-2.98-1.21c-0.33-1.71-1.26-2.95-2.72-3.93
		c-6.46-4.28-12.88-8.62-19.31-12.94c-0.99-0.6-1.98-1.21-2.97-1.81c-1.12-1.04-2.2-2.14-3.8-2.45c-0.77-0.99-1.62-1.85-2.94-2.05
		c0.47-0.71,0.95-1.43,1.42-2.14c0.42,0.06,0.85,0.12,1.27,0.18c0.17,0.25,0.4,0.36,0.7,0.34c0.41,0.3,0.82,0.59,1.22,0.89
		l0.05,0.06c1.43,1,2.86,2.01,4.29,3.01c6.32,5.55,13.68,9.66,20.39,14.66c0.73,0.55,1.52,0.54,2.32,0.19
		c0.44,1.47,1.58,1.94,2.96,2.06c0.82,1.48,1.77,2.8,3.61,3.08c-0.46,0.68-0.92,1.37-1.38,2.05
		C335.45,424.66,334.74,424.67,334.03,424.67z"/>
	<path class="st3" d="M199.09,465.44c-3.81,2.34-2.02,5.64-1.19,8.52c0.66,2.29,2.08,4.36,3.16,6.53c-3.44-1.75-4.92-4.83-4.99-8.4
		c-0.13-6.88,0.09-13.76,0.16-20.65c0.96,0.02,1.92,0.04,2.88,0.07C199.1,456.15,199.1,460.79,199.09,465.44z"/>
	<path class="st3" d="M380.55,240.09c5.76-3.52,10.19-2.93,14.94,2c-0.19,0.18-0.38,0.35-0.57,0.52c-4.18-3.84-8.94-3.7-13.92-1.99
		C380.85,240.44,380.7,240.27,380.55,240.09z"/>
	<path class="st3" d="M215.11,336.47c-4.26-0.78-8.47-1.95-12.86-1.85C207.54,332.01,211.24,332.55,215.11,336.47z"/>
	<path class="st1" d="M199.11,451.51c-0.96-0.02-1.92-0.04-2.88-0.07c-0.04-0.66-0.09-1.31-0.13-1.97c2.3-1.36-0.81-5.43,3-6.04
		C199.11,446.13,199.11,448.82,199.11,451.51z"/>
	<path class="st3" d="M201.43,480.71c4.42,0.93,8.8,1.09,13.05-0.8C210.34,483.56,205.99,483.82,201.43,480.71z"/>
	<path class="st3" d="M218.68,346.56c-2.92-2.27-1.54-5.58-2.04-8.44C218.72,340.6,219.36,343.42,218.68,346.56z"/>
	<path class="st3" d="M216.48,477.89c0.6-1.86-0.28-4.27,2.07-5.47C218.66,474.55,218.11,476.43,216.48,477.89z"/>
	<path class="st3" d="M215.76,395.32c0.88-0.8,1.77-1.61,2.65-2.41c0.09,0.87,0.18,1.75,0.27,2.63
		C217.71,395.46,216.73,395.39,215.76,395.32z"/>
	<path class="st3" d="M377.51,243.13c0.65-1.38,1.67-2.38,3.04-3.04c0.15,0.17,0.3,0.35,0.45,0.53c-1,1-2,1.99-2.99,2.99
		C377.84,243.45,377.67,243.29,377.51,243.13z"/>
	<path class="st3" d="M214.58,479.9c-0.55-1.81,0.1-2.44,1.91-1.95C216.21,478.95,215.58,479.6,214.58,479.9z"/>
	<path class="st3" d="M218.64,385.54c-2.09-0.72-0.74-1.36,0.05-2.02C218.67,384.2,218.66,384.87,218.64,385.54z"/>
	<path class="st3" d="M216.56,337.99c-1.3,0.27-1.43-0.57-1.45-1.52C215.99,336.59,216.34,337.22,216.56,337.99z"/>
	<path class="st5" d="M331.87,377.95c0,0-0.04-0.12-0.04-0.13c0-0.01,0.09,0.2,0.09,0.2L331.87,377.95z"/>
	<path class="st3" d="M376.82,244.44c0.23-0.44,0.46-0.87,0.69-1.31c0.17,0.16,0.34,0.32,0.5,0.48c-0.29,0.36-0.58,0.72-0.87,1.09
		C377.14,244.7,376.82,244.44,376.82,244.44z"/>
	<path class="st6" d="M245.14,364.53c0.32-1.81,1.84-2.79,2.81-4.16c0.44-0.37,0.89-0.75,1.33-1.12c0.37-0.05,0.64,0.1,0.79,0.45
		c1.86,2.93,1.94,6.17,1.93,9.53c-0.06,20.29,0,40.58,0.02,60.88c0,0.33,0.06,0.67,0.01,1c-0.42,2.46,0.43,6.19-3.19,6.25
		c-4.07,0.07-2.86-3.77-2.87-6.17c-0.08-20.46-0.02-40.92-0.06-61.37C245.91,368.04,246.49,366.12,245.14,364.53z"/>
	<path class="st6" d="M247.22,351.55c-2.15-1.19-1.24-3.25-1.25-4.92c-0.08-19.43-0.09-38.86-0.04-58.29
		c0.01-2.31-0.88-5.71,2.94-5.65c3.52,0.05,3.13,3.33,3.13,5.72c0.03,20.43-0.03,40.85-0.06,61.28
		C250.37,350.3,248.8,350.92,247.22,351.55z"/>
	<path class="st7" d="M199.11,451.51c0-2.69,0-5.38,0-8.07c0-2.31,0-4.61,0-6.92c0-1.69,0-3.39,0-5.08c0-5.97,0-11.94,0-17.91
		c0-3.03,0-6.06,0.01-9.08c0-2.64-0.01-5.27-0.01-7.91c0-2.69,0-5.39,0-8.08c0-2.97,0-5.94,0-8.91c0-4.69,0-9.38,0-14.08
		c0-2.97,0-5.94,0-8.92c0-0.69,0-1.38,0-2.07c-0.01-1.97-0.01-3.95-0.02-5.92c0-1.03,0-2.06,0-3.09c0.01-1.24,0.01-2.48,0.02-3.73
		c5.08-2.25,5.74-1.77,6.07,3.3c1.08,16.65,1.11,33.3,0.24,49.96c-0.06,1.11,0.43,2.24,0.67,3.36c-5.17,0.8-5.57,4.04-4.19,8.19
		c-0.07,0.11-0.23,0.27-0.2,0.33c0.1,0.21,0.27,0.39,0.42,0.58l0.01-0.1c5.18,8.31,2.52,17.54,2.95,26.38
		c0.58,11.77-0.52,23.57,0.51,35.36c0.18,2.09-0.01,5.1-3.23,5.27c-3.46,0.18-3.23-2.58-3.24-4.94c-0.01-1.33-0.02-2.66-0.02-3.99
		C199.1,460.79,199.1,456.15,199.11,451.51z"/>
	<path class="st2" d="M302.69,398.66c-0.3,0.02-0.53-0.09-0.7-0.34c-0.85-1.78,2.05-5.22-2.39-5.42l0.06,0
		c-0.08-0.86-0.58-1.15-1.39-1.02l-0.34-0.11c0.08-1.29-0.43-2.13-1.77-2.34c-0.02-2.31-0.03-4.61-0.05-6.92
		c0.11-0.1,0.34-0.23,0.32-0.3c-0.06-0.26-0.2-0.49-0.31-0.74c-0.02-27.8-0.07-55.6-0.05-83.4c0-3.41-0.32-6.19-4.85-5.29
		c-0.73-0.52-1.31-1.17-0.7-2.05c2.05-2.97,5.16-3.76,8.37-3.09c3.06,0.64,6.38,2.02,6.91,5.52c0.51,3.4,1.29,6.78,1.27,10.32
		c-0.14,22.77-0.03,45.55-0.09,68.33c-0.02,8.61-0.38,17.22-0.39,25.84c0,2.31-1.54,1.63-2.65,1.95c0,0-0.05-0.06-0.05-0.06
		C303.51,399.25,303.1,398.96,302.69,398.66z"/>
	<path class="st7" d="M291.24,292.8c4.53-0.9,4.85,1.88,4.85,5.29c-0.02,27.8,0.02,55.6,0.05,83.4c0,0.34-0.01,0.69-0.01,1.03
		c0.02,2.31,0.03,4.61,0.05,6.92c-0.04,0.62-0.08,1.23-0.13,1.85c-0.81,0.19-1.63,0.39-2.44,0.58c-1.18-1.21-2.36-2.42-3.54-3.63
		c1.22-6.83,0.02-13.67,0.02-20.5c-0.02-22.21,0.03-44.42-0.05-66.63C290.02,298.25,290.93,295.59,291.24,292.8z"/>
	<path class="st2" d="M302.24,402.34c1.59,0.31,2.67,1.41,3.8,2.45c1.72,19.03,0.89,38.06,0.57,57.12
		c-0.11,6.4,0.22,12.9,0.41,19.35c0.15,5.2-3.58,7.64-7.38,9.72c-2.78,1.52-5.44,0.2-7.82-1.58c-1.47-1.1-2.68-2.18-0.82-3.94
		c5.31,2.51,5.06-1.25,5.06-4.56c0.04-25.46,0.06-50.92,0.08-76.38C298.17,403.78,300.21,403.06,302.24,402.34z"/>
	<path class="st7" d="M296.13,404.51c-0.02,25.46-0.04,50.92-0.08,76.38c-0.01,3.31,0.25,7.07-5.06,4.56
		c-0.66-1.36-0.93-2.79-0.93-4.32c0.03-25.71,0.02-51.41,0.04-77.12c0-0.63,0.18-1.26,0.29-1.95
		C292.98,401.57,293.83,404.76,296.13,404.51z"/>
	<path class="st6" d="M334.03,424.67c0.71-0.01,1.42-0.02,2.13-0.03c-1.19,4.32,0.49,6.73,4.88,7.36
		c-0.02,13.56-0.19,27.13,0.01,40.69c0.07,4.55-1.33,6.97-6.09,6.79c-1.75-16.08-0.42-32.22-0.8-48.33
		C334.1,429,334.07,426.84,334.03,424.67z"/>
	<path class="st6" d="M341.99,422.47c-1.49,0.04-2.97,0.08-4.46,0.13c-1.84-0.28-2.79-1.6-3.61-3.08
		c0.07-11.45,0.13-22.89,0.2-34.34c0.01-1.33-0.13-2.68,0.06-3.98c0.33-2.16,0.81-4.6,3.61-4.56c2.93,0.05,3.14,2.56,3.15,4.74
		c0.04,11.78,0,23.57,0,35.35C340.94,418.7,340.63,420.74,341.99,422.47z"/>
	<path class="st1" d="M377.14,244.7c0.29-0.36,0.58-0.72,0.87-1.09c1-1,2-1.99,2.99-2.99c4.98-1.71,9.73-1.85,13.92,1.99
		c1.58,4.77,2.11,9.63,2.11,14.67c-0.08,70.53-0.05,141.06-0.06,211.59c0,2.16-0.1,4.32-0.15,6.48c-2.16,1.74-4.16,3.73-6.51,5.15
		c-4.24,2.58-10.56-0.02-12.1-4.8c-0.49-1.53-0.44-3,1.71-3.24c0.03,2.17,0.42,4.21,3.23,3.94c2.36-0.23,2.64-2.24,2.77-4.1
		c0.12-1.66,0.05-3.33,0.05-4.99c0.02-36.29,0.04-72.58,0.05-108.87c1.1-0.72,2.24-1.39,3.29-2.17c3.49-2.63,3.5-7.11,0.07-9.78
		c-0.33-0.07-0.52-0.28-0.55-0.62c-0.28-1.68-1.5-2.56-2.83-3.35c-0.01-29.95-0.01-59.89-0.06-89.84c-0.01-2.65,0.94-6.7-2.83-6.86
		c-4.77-0.2-3.04,4.3-3.05,6.88c-0.17,32.27-0.19,64.55-0.26,96.82c-1.22,2-1.33,3.99,0.07,5.96c0.05,0.66,0.1,1.33,0.14,1.99
		c-3.97,0.3-3.02-2.65-3.02-4.77c-0.04-22.23-0.05-44.47-0.02-66.7C376.98,272.23,377.07,258.47,377.14,244.7z"/>
	<path class="st7" d="M386.02,358.45c-0.02,36.29-0.04,72.58-0.05,108.87c0,1.66,0.06,3.34-0.05,4.99c-0.13,1.86-0.41,3.87-2.77,4.1
		c-2.81,0.27-3.19-1.77-3.23-3.94c0.03-30.89,0.08-61.77,0.07-92.66c0-4.54,2.34-9.3-1.11-13.56c0.43-0.94,0.85-1.88,1.28-2.82
		c3.04,0.05,2.89-1.8,2.33-3.9c-0.01-0.25,0.1-0.43,0.32-0.54C383.99,359.49,384.97,358.76,386.02,358.45z"/>
	<path class="st1" d="M199.11,365.47c0,4.69,0,9.38,0,14.08C196.17,376.84,196.17,368.18,199.11,365.47z"/>
	<path class="st1" d="M199.12,404.45c0,3.03,0,6.05-0.01,9.08C196.19,410.86,196.2,407.12,199.12,404.45z"/>
	<path class="st1" d="M199.11,388.46c0,2.69,0,5.38,0,8.08C195.82,393.85,195.81,391.15,199.11,388.46z"/>
	<path class="st1" d="M199.11,431.44c0,1.69,0,3.39,0,5.08C195.85,434.83,195.85,433.13,199.11,431.44z"/>
	<path class="st1" d="M199.1,354.49c0,0.69,0,1.38,0,2.07c-0.75-0.15-1.78-0.14-1.53-1.26C197.65,354.93,198.57,354.75,199.1,354.49
		z"/>
	<path class="st2" d="M199.09,345.48c0,1.03,0,2.06,0,3.09C197.73,347.53,197.74,346.51,199.09,345.48z"/>
	<path class="st7" d="M380,357.47c-0.05-0.66-0.1-1.33-0.14-1.99c0.73,0.01,1.46,0.01,2.19,0.02c-0.47,0.65-0.93,1.31-1.4,1.96
		C380.43,357.46,380.22,357.47,380,357.47z"/>
	<path class="st3" d="M382.05,355.5c-0.73-0.01-1.46-0.01-2.19-0.02c-1.4-1.97-1.29-3.96-0.07-5.96c0,0,0.44,0.06,0.44,0.06
		l0.45-0.01c0.59,3.74,2.6,6.01,6.47,4.71c4.01-1.35,3.7-4.55,2.22-7.79c3.43,2.67,3.42,7.16-0.07,9.78
		c-1.05,0.79-2.19,1.45-3.29,2.17c-1.05,0.31-2.03,1.04-3.22,0.54C382.79,357.77,383.73,356.35,382.05,355.5z"/>
	<path class="st3" d="M382.48,359.52c0.56,2.1,0.71,3.95-2.33,3.9C380.63,361.95,381.27,360.56,382.48,359.52z"/>
	<path class="st3" d="M300.72,398.14c0.33-1.9-0.52-3.54-1.12-5.23c4.44,0.2,1.54,3.64,2.39,5.42
		C301.57,398.26,301.15,398.2,300.72,398.14z"/>
	<path class="st3" d="M302.69,398.66c0.41,0.3,0.82,0.59,1.22,0.89C303.5,399.25,303.1,398.96,302.69,398.66z"/>
	<path class="st1" d="M201.9,406.56c0.07,0.3,0.14,0.61,0.21,0.91c-0.14-0.19-0.32-0.37-0.42-0.58
		C201.66,406.83,201.82,406.68,201.9,406.56z"/>
	<path class="st3" d="M297.94,391.78c-0.63-0.16-1.27-0.32-1.9-0.48c0.04-0.62,0.08-1.23,0.13-1.85
		C297.51,389.65,298.02,390.49,297.94,391.78z"/>
	<path class="st3" d="M296.12,382.52c0-0.34,0.01-0.69,0.01-1.03c0.11,0.24,0.25,0.48,0.31,0.74
		C296.46,382.3,296.24,382.42,296.12,382.52z"/>
	<path class="st3" d="M299.67,392.91c-0.46-0.34-0.92-0.68-1.39-1.02C299.08,391.76,299.59,392.05,299.67,392.91z"/>
	<path class="st7" d="M380.68,349.57l-0.45,0.01c0,0-0.44-0.06-0.44-0.06c0.06-32.27,0.08-64.55,0.25-96.82
		c0.01-2.58-1.72-7.08,3.05-6.88c3.77,0.16,2.83,4.21,2.83,6.86c0.06,29.95,0.05,59.89,0.06,89.84c-0.08,0.76-0.15,1.52-0.23,2.28
		C382.57,344.8,381.36,346.9,380.68,349.57z"/>
	<path class="st3" d="M388.82,345.87c-1.05-0.27-2.29,0-3.06-1.07c0.08-0.76,0.15-1.52,0.23-2.28
		C387.32,343.31,388.54,344.2,388.82,345.87z"/>
</g>
</svg>
